# xmcd CD database file
#
# Track frame offsets:
#	150
#	23185
#	46105
#	73155
#	98265
#	117622
#	126735
#	144725
#	165192
#	201195
#
# Disc length: 2785 seconds
#
# Revision: 1
# Processed by: cddbd v1.4PL0 Copyright (c) Steve Scherf et al.
# Submitted via: CDex 1.50
#
DISCID=8c0adf0a
DTITLE=Philipe Kahn - Paradiso
DYEAR=1992
DGENRE=Blues
TTITLE0=Paradiso
TTITLE1=Master Blaster (Jammin')
TTITLE2=Cecelia Is Love
TTITLE3=Make The Time
TTITLE4=Bluesette
TTITLE5=Little Wing Prelude
TTITLE6=Little Wind
TTITLE7=After The Rain
TTITLE8=Leroy Street
TTITLE9=Three Winds
EXTD=YEAR: 1992
EXTT0=
EXTT1=
EXTT2=
EXTT3=
EXTT4=
EXTT5=
EXTT6=
EXTT7=
EXTT8=
EXTT9=
PLAYORDER=
